<svg xmlns="http://www.w3.org/2000/svg" width="200" height="200" viewBox="0 0 200 200">

    <g id="get">
        <rect id="Retângulo_2" width="200" height="200" rx="40" fill="#2d79e4"/>
        <g id="Grupo_2" transform="translate(28.5 27.5)">
            <path id="Caminho_1" d="M211.5,417v-1.5a28.5,28.5,0,0,0-28.5-28.5h-15a28.5,28.5,0,0,0-28.5,28.5V417a28.5,28.5,0,0,0,28.5,28.5h15a28.5,28.5,0,0,0,28.5-28.5Zm-57-1.5a13.5,13.5,0,0,1,13.5-13.5h15a13.5,13.5,0,0,1,13.5,13.5V417a13.5,13.5,0,0,1-13.5,13.5h-15a13.5,13.5,0,0,1-13.5-13.5Z" transform="translate(-139.5 -319.5)" fill="#fff"/>
            <path id="Caminho_2" d="M375,387h-12a4.5,4.5,0,0,0-4.5,4.5V420a4.5,4.5,0,0,0,4.5,4.5h22.5a4.5,4.5,0,0,0,4.5-4.5V402a4.5,4.5,0,0,0-4.5-4.5H378a4.5,4.5,0,0,0-4.5,4.5V411H363V391.5a13.5,13.5,0,0,1,13.5-13.5h22.5A13.5,13.5,0,0,1,412.5,391.5V420A13.5,13.5,0,0,1,399,433.5H363A13.5,13.5,0,0,1,349.5,420V391.5A13.5,13.5,0,0,1,363,378h12a4.5,4.5,0,1,0,0-9H363a22.5,22.5,0,0,0,0,45h36a4.5,4.5,0,1,0,0-9H378V402h25.5a4.5,4.5,0,0,0,0-9H378a4.5,4.5,0,1,0,0,9Z" transform="translate(-298.5 -310.5)" fill="#fff" fill-rule="evenodd"/>
        </g>
    </g>
</svg>