<svg width="1080" height="1080" viewBox="0 0 1080 1080" fill="none" xmlns="http://www.w3.org/2000/svg">
    <path d="M216 215.215L540 539.215L864 215.215L540 0L216 215.215Z" fill="#29B6F6"/>
    <path d="M540 1080L216 864.785L540 540.785L864 864.785L540 1080Z" fill="#03A9F4"/>
    <path d="M0 540.785L216 215.215L540 540.785L216 864.785L0 540.785Z" fill="#01579B"/>
    <path d="M1080 540.785L864 215.215L540 540.785L864 864.785L1080 540.785Z" fill="#0277BD"/>
    <path d="M540 540.785L216 215.215L540 0V540.785Z" fill="#0288D1"/>
    <path d="M540 540.785L864 215.215L540 0V540.785Z" fill="#0277BD"/>
    <path d="M540 540.785L216 864.785L540 1080V540.785Z" fill="#01579B"/>
    <path d="M540 540.785L864 864.785L540 1080V540.785Z" fill="#0277BD"/>
</svg>